<?xml version="1.0" encoding="UTF-8" ?>
<!DOCTYPE svg PUBLIC "-//W3C//DTD SVG 1.1//EN" "http://www.w3.org/Graphics/SVG/1.1/DTD/svg11.dtd">
<svg width="1024pt" height="1024pt" viewBox="0 0 1024 1024" version="1.1" xmlns="http://www.w3.org/2000/svg">
<path fill="#58c0cd" stroke="#58c0cd" stroke-width="0.09375" opacity="1.00" d=" M 499.57 105.82 C 507.99 104.65 516.52 105.05 524.99 105.25 C 573.44 106.70 621.61 116.94 666.44 135.37 C 738.83 164.95 802.17 216.04 846.64 280.35 C 887.87 339.56 912.77 409.97 917.87 481.94 C 923.27 554.44 909.02 628.37 876.40 693.38 C 871.01 703.71 866.30 714.56 858.71 723.53 C 848.35 736.13 833.81 745.22 817.92 748.94 C 801.91 752.71 784.65 751.18 769.65 744.38 C 751.90 736.49 737.50 721.47 730.37 703.41 C 722.09 682.85 723.56 658.70 734.25 639.29 C 751.87 609.34 762.61 575.51 766.63 541.06 C 767.34 532.73 768.39 524.40 768.04 516.01 C 768.79 487.68 764.35 459.29 755.60 432.34 C 743.21 394.18 721.47 359.22 693.22 330.78 C 666.79 304.61 634.85 283.93 599.85 271.23 C 578.08 263.31 555.21 258.29 532.11 256.60 C 522.43 255.23 512.61 256.55 502.90 255.58 C 485.99 253.96 469.76 246.30 457.66 234.38 C 447.30 224.24 439.93 211.06 436.83 196.89 C 432.55 177.78 436.02 157.04 446.52 140.47 C 458.03 121.92 477.93 108.85 499.57 105.82 Z" />
<path fill="#f2f2f7" stroke="#f2f2f7" stroke-width="0.09375" opacity="1.00" d=" M 182.48 281.41 C 202.48 267.83 228.85 264.29 251.72 272.17 C 260.54 274.99 268.35 280.06 276.34 284.61 C 364.26 335.36 452.18 386.12 540.11 436.87 C 546.32 440.56 552.82 443.83 558.58 448.24 C 576.74 461.71 588.38 483.42 589.80 505.96 C 589.98 511.65 591.08 517.28 590.99 522.99 C 591.00 629.00 591.00 735.02 590.99 841.04 C 591.00 855.09 587.20 869.14 580.00 881.21 C 571.32 895.90 557.78 907.65 541.98 914.09 C 527.81 919.98 511.93 921.37 496.85 918.72 C 477.16 915.23 459.05 903.84 447.29 887.68 C 437.37 874.28 431.96 857.64 432.01 840.97 C 431.99 777.18 432.01 713.39 432.00 649.60 C 378.87 680.28 325.74 710.95 272.61 741.63 C 267.87 744.33 263.23 747.23 258.20 749.37 C 241.57 756.71 222.38 757.96 204.92 752.95 C 190.34 748.81 176.99 740.39 167.04 728.95 C 153.07 712.89 145.42 691.26 147.27 669.95 C 149.04 644.38 164.23 620.23 186.53 607.60 C 241.86 575.67 297.13 543.64 352.51 511.83 C 297.35 480.35 242.46 448.36 187.41 416.68 C 171.57 407.84 158.92 393.41 152.43 376.46 C 145.55 359.02 145.21 339.10 151.54 321.45 C 157.36 305.34 168.14 290.90 182.48 281.41 Z" />
</svg>
