<?xml version="1.0" encoding="UTF-8" ?>
<!DOCTYPE svg PUBLIC "-//W3C//DTD SVG 1.1//EN" "http://www.w3.org/Graphics/SVG/1.1/DTD/svg11.dtd">
<svg width="1024pt" height="1024pt" viewBox="0 0 1024 1024" version="1.1" xmlns="http://www.w3.org/2000/svg">
<path fill="#f2f2f7" stroke="#f2f2f7" stroke-width="0.09375" opacity="1.00" d=" M 355.55 398.77 C 364.99 397.62 374.51 398.10 384.00 398.00 C 474.67 398.00 565.34 398.01 656.01 397.99 C 677.11 397.95 698.22 403.83 716.15 414.99 C 746.62 433.60 767.30 467.32 769.66 503.00 C 772.60 538.16 757.72 574.09 731.00 597.07 C 714.22 611.72 693.04 621.27 670.94 624.05 C 661.67 625.34 652.30 624.94 642.98 625.00 C 557.31 625.00 471.64 625.00 385.97 625.00 C 373.30 624.92 360.50 625.60 347.99 623.10 C 317.22 617.60 289.23 598.62 272.61 572.16 C 259.77 552.03 253.60 527.75 255.26 503.93 C 256.70 481.28 265.24 459.17 279.32 441.37 C 297.73 417.79 325.80 402.06 355.55 398.77 M 469.31 410.47 C 452.79 412.22 436.60 417.58 422.71 426.78 C 400.16 441.40 384.05 465.52 379.10 491.93 C 374.64 511.40 377.64 531.87 384.75 550.32 C 388.06 557.40 391.33 564.59 396.26 570.73 C 414.85 597.63 447.57 613.30 480.05 613.01 C 538.72 613.00 597.38 613.04 656.05 612.97 C 684.89 612.28 713.56 599.37 732.00 576.97 C 736.67 570.83 741.59 564.78 744.74 557.68 C 750.11 547.91 752.85 536.96 754.84 526.07 C 757.92 508.33 754.76 490.06 748.53 473.35 C 745.19 465.75 741.47 458.26 736.32 451.71 C 724.96 435.41 708.13 423.36 689.69 416.31 C 678.16 412.59 666.13 409.87 653.96 410.03 C 597.29 409.95 540.61 410.03 483.94 410.00 C 479.06 409.98 474.17 409.94 469.31 410.47 Z" />
<path fill="#dfdfe4" stroke="#dfdfe4" stroke-width="0.09375" opacity="1.00" d=" M 469.31 410.47 C 474.17 409.94 479.06 409.98 483.94 410.00 C 540.61 410.03 597.29 409.95 653.96 410.03 C 666.13 409.87 678.16 412.59 689.69 416.31 C 708.13 423.36 724.96 435.41 736.32 451.71 C 741.47 458.26 745.19 465.75 748.53 473.35 C 754.76 490.06 757.92 508.33 754.84 526.07 C 752.85 536.96 750.11 547.91 744.74 557.68 C 741.59 564.78 736.67 570.83 732.00 576.97 C 713.56 599.37 684.89 612.28 656.05 612.97 C 597.38 613.04 538.72 613.00 480.05 613.01 C 447.57 613.30 414.85 597.63 396.26 570.73 C 391.33 564.59 388.06 557.40 384.75 550.32 C 377.64 531.87 374.64 511.40 379.10 491.93 C 384.05 465.52 400.16 441.40 422.71 426.78 C 436.60 417.58 452.79 412.22 469.31 410.47 M 467.48 422.66 C 436.68 426.13 408.74 447.08 396.50 475.51 C 387.77 495.27 386.58 518.21 393.21 538.76 C 398.72 556.16 409.75 571.75 424.30 582.76 C 439.04 594.07 457.39 600.51 475.95 601.00 C 532.32 601.00 588.69 601.00 645.06 601.00 C 652.19 600.94 659.37 601.33 666.46 600.22 C 683.16 598.08 699.14 590.95 712.02 580.11 C 728.58 566.32 739.89 546.32 743.00 524.98 C 745.86 506.65 742.76 487.46 734.34 470.94 C 726.74 455.97 714.84 443.23 700.41 434.63 C 685.94 425.88 668.92 421.54 652.03 421.99 C 595.66 422.01 539.29 422.00 482.91 422.00 C 477.76 421.94 472.59 421.94 467.48 422.66 Z" />
<path fill="#387f95" stroke="#387f95" stroke-width="0.09375" opacity="1.00" d=" M 467.48 422.66 C 472.59 421.94 477.76 421.94 482.91 422.00 C 539.29 422.00 595.66 422.01 652.03 421.99 C 668.92 421.54 685.94 425.88 700.41 434.63 C 714.84 443.23 726.74 455.97 734.34 470.94 C 742.76 487.46 745.86 506.65 743.00 524.98 C 739.89 546.32 728.58 566.32 712.02 580.11 C 699.14 590.95 683.16 598.08 666.46 600.22 C 659.37 601.33 652.19 600.94 645.06 601.00 C 588.69 601.00 532.32 601.00 475.95 601.00 C 457.39 600.51 439.04 594.07 424.30 582.76 C 409.75 571.75 398.72 556.16 393.21 538.76 C 386.58 518.21 387.77 495.27 396.50 475.51 C 408.74 447.08 436.68 426.13 467.48 422.66 Z" />
</svg>
